<?xml version="1.0" encoding="UTF-8" standalone="no"?>
<!DOCTYPE svg PUBLIC "-//W3C//DTD SVG 1.1//EN" "http://www.w3.org/Graphics/SVG/1.1/DTD/svg11.dtd">
<svg width="100%" height="100%" viewBox="0 0 350 580" version="1.1" xmlns="http://www.w3.org/2000/svg" xmlns:xlink="http://www.w3.org/1999/xlink" xml:space="preserve" xmlns:serif="http://www.serif.com/" style="fill-rule:evenodd;clip-rule:evenodd;stroke-linejoin:round;stroke-miterlimit:2;">
    <g transform="matrix(1,0,0,1,-365.212198,-278.041439)">
        <g transform="matrix(1,0,0,1,6.981837,-6.006641)">
            <g transform="matrix(3.857412,0,0,3.857412,-390.56615,-694.761869)">
                <g transform="matrix(180,0,0,180,299.863245,388.747812)">
                </g>
                <text x="179.803px" y="388.748px" style="font-family:'Silom';font-size:180px;">P</text>
            </g>
            <g transform="matrix(2.065381,0,0,2.065381,92.011305,1.886289)">
                <g transform="matrix(180,0,0,180,269.803245,388.747812)">
                </g>
                <text x="179.803px" y="388.748px" style="font-family:'Silom';font-size:180px;">r</text>
            </g>
            <g transform="matrix(0.378958,0,0,0.378958,284.430778,716.645964)">
                <g transform="matrix(180,0,0,180,1049.923245,388.747812)">
                </g>
                <text x="179.803px" y="388.748px" style="font-family:'Silom';font-size:180px;">Numbers</text>
            </g>
            <g transform="matrix(0.321372,0,0,0.321372,508.645307,677.145414)">
                <g transform="matrix(180,0,0,180,539.803245,388.747812)">
                </g>
                <text x="179.803px" y="388.748px" style="font-family:'Silom';font-size:180px;">ime</text>
            </g>
        </g>
    </g>
</svg>
